# xmcd CD database file
#
# Track frame offsets:
#	150
#	29107
#	53116
#	84303
#	110691
#	144994
#	173535
#	191040
#	213956
#	238617
#
# Disc length: 3510 seconds
#
# Revision: 0
# Processed by: cddbd v1.5.2PL0 Copyright (c) Steve Scherf et al.
# Submitted via: CDex 1.70beta2
#
DISCID=860db40a
DTITLE=Nicole Metzger and Keith Copeland - Second Take
DYEAR=2007
DGENRE=Jazz
TTITLE0=You don't know what love is
TTITLE1=Sugar
TTITLE2=Bewitched
TTITLE3=Summer Night
TTITLE4=Summer Samba
TTITLE5=God bless the child
TTITLE6=The very thought of you
TTITLE7=Sophisticated Lady
TTITLE8=Smile
TTITLE9=Don't get around much anymore
EXTD=YEAR: 2007
EXTT0=
EXTT1=
EXTT2=
EXTT3=
EXTT4=
EXTT5=
EXTT6=
EXTT7=
EXTT8=
EXTT9=
PLAYORDER=
